<svg xmlns="http://www.w3.org/2000/svg" xmlns:xlink="http://www.w3.org/1999/xlink" width="200" zoomAndPan="magnify" viewBox="0 0 150 37.5" height="50" preserveAspectRatio="xMidYMid meet" version="1.0"><defs><g/></defs><g fill="#ff00ff" fill-opacity="1"><g transform="translate(28.102956, 30.42368)"><g><path d="M 8.734375 0 L 3.53125 0 C 3.101562 0 2.789062 -0.09375 2.59375 -0.28125 C 2.40625 -0.476562 2.3125 -0.785156 2.3125 -1.203125 L 2.3125 -22.96875 C 2.3125 -23.394531 2.40625 -23.703125 2.59375 -23.890625 C 2.789062 -24.078125 3.101562 -24.171875 3.53125 -24.171875 L 13.796875 -24.171875 C 16.847656 -24.171875 18.929688 -23.566406 20.046875 -22.359375 C 21.160156 -21.148438 21.71875 -19.570312 21.71875 -17.625 L 21.71875 -13.328125 C 21.71875 -11.378906 21.160156 -9.800781 20.046875 -8.59375 C 18.929688 -7.382812 16.847656 -6.78125 13.796875 -6.78125 L 9.9375 -6.78125 L 9.9375 -1.203125 C 9.9375 -0.785156 9.84375 -0.476562 9.65625 -0.28125 C 9.46875 -0.09375 9.160156 0 8.734375 0 Z M 9.875 -17.890625 L 9.875 -12.828125 L 12.890625 -12.828125 C 13.546875 -12.828125 13.972656 -12.992188 14.171875 -13.328125 C 14.367188 -13.660156 14.46875 -14.039062 14.46875 -14.46875 L 14.46875 -16.25 C 14.46875 -16.675781 14.367188 -17.054688 14.171875 -17.390625 C 13.972656 -17.722656 13.546875 -17.890625 12.890625 -17.890625 Z M 9.875 -17.890625 "/></g></g></g><g fill="#ff00ff" fill-opacity="1"><g transform="translate(50.998991, 30.42368)"><g><path d="M 8.734375 0 L 3.53125 0 C 3.101562 0 2.789062 -0.09375 2.59375 -0.28125 C 2.40625 -0.476562 2.3125 -0.785156 2.3125 -1.203125 L 2.3125 -22.96875 C 2.3125 -23.394531 2.40625 -23.703125 2.59375 -23.890625 C 2.789062 -24.078125 3.101562 -24.171875 3.53125 -24.171875 L 8.734375 -24.171875 C 9.160156 -24.171875 9.46875 -24.078125 9.65625 -23.890625 C 9.84375 -23.703125 9.9375 -23.394531 9.9375 -22.96875 L 9.9375 -15.6875 L 15.546875 -15.6875 L 15.546875 -22.96875 C 15.546875 -23.394531 15.640625 -23.703125 15.828125 -23.890625 C 16.023438 -24.078125 16.332031 -24.171875 16.75 -24.171875 L 21.953125 -24.171875 C 22.378906 -24.171875 22.6875 -24.078125 22.875 -23.890625 C 23.070312 -23.703125 23.171875 -23.394531 23.171875 -22.96875 L 23.171875 -1.203125 C 23.171875 -0.785156 23.070312 -0.476562 22.875 -0.28125 C 22.6875 -0.09375 22.378906 0 21.953125 0 L 16.75 0 C 16.332031 0 16.023438 -0.09375 15.828125 -0.28125 C 15.640625 -0.476562 15.546875 -0.785156 15.546875 -1.203125 L 15.546875 -8.65625 L 9.9375 -8.65625 L 9.9375 -1.203125 C 9.9375 -0.785156 9.84375 -0.476562 9.65625 -0.28125 C 9.46875 -0.09375 9.160156 0 8.734375 0 Z M 8.734375 0 "/></g></g></g><g fill="#ff00ff" fill-opacity="1"><g transform="translate(76.480066, 30.42368)"><g><path d="M 2.984375 0 C 2.554688 0 2.25 -0.09375 2.0625 -0.28125 C 1.875 -0.476562 1.78125 -0.785156 1.78125 -1.203125 L 1.78125 -5.203125 C 1.78125 -5.628906 1.875 -5.9375 2.0625 -6.125 C 2.25 -6.3125 2.554688 -6.40625 2.984375 -6.40625 L 6.3125 -6.40625 L 6.3125 -17.703125 L 2.984375 -17.703125 C 2.554688 -17.703125 2.25 -17.796875 2.0625 -17.984375 C 1.875 -18.171875 1.78125 -18.476562 1.78125 -18.90625 L 1.78125 -22.96875 C 1.78125 -23.394531 1.875 -23.703125 2.0625 -23.890625 C 2.25 -24.078125 2.554688 -24.171875 2.984375 -24.171875 L 17.296875 -24.171875 C 17.722656 -24.171875 18.03125 -24.078125 18.21875 -23.890625 C 18.40625 -23.703125 18.5 -23.394531 18.5 -22.96875 L 18.5 -18.90625 C 18.5 -18.476562 18.40625 -18.171875 18.21875 -17.984375 C 18.03125 -17.796875 17.722656 -17.703125 17.296875 -17.703125 L 14.03125 -17.703125 L 14.03125 -6.40625 L 17.296875 -6.40625 C 17.722656 -6.40625 18.03125 -6.3125 18.21875 -6.125 C 18.40625 -5.9375 18.5 -5.628906 18.5 -5.203125 L 18.5 -1.203125 C 18.5 -0.785156 18.40625 -0.476562 18.21875 -0.28125 C 18.03125 -0.09375 17.722656 0 17.296875 0 Z M 2.984375 0 "/></g></g></g><g fill="#ff00ff" fill-opacity="1"><g transform="translate(96.791062, 30.42368)"><g><path d="M 20.609375 0 L 3.53125 0 C 3.101562 0 2.789062 -0.09375 2.59375 -0.28125 C 2.40625 -0.476562 2.3125 -0.785156 2.3125 -1.203125 L 2.3125 -22.96875 C 2.3125 -23.394531 2.40625 -23.703125 2.59375 -23.890625 C 2.789062 -24.078125 3.101562 -24.171875 3.53125 -24.171875 L 8.734375 -24.171875 C 9.160156 -24.171875 9.46875 -24.078125 9.65625 -23.890625 C 9.84375 -23.703125 9.9375 -23.394531 9.9375 -22.96875 L 9.9375 -6.34375 L 14.546875 -6.34375 L 14.546875 -11.78125 C 14.546875 -12.207031 14.640625 -12.515625 14.828125 -12.703125 C 15.015625 -12.898438 15.320312 -13 15.75 -13 L 20.609375 -13 C 21.035156 -13 21.34375 -12.898438 21.53125 -12.703125 C 21.726562 -12.515625 21.828125 -12.207031 21.828125 -11.78125 L 21.828125 -1.203125 C 21.828125 -0.785156 21.726562 -0.476562 21.53125 -0.28125 C 21.34375 -0.09375 21.035156 0 20.609375 0 Z M 20.609375 0 "/></g></g></g><g fill="#00ffff" fill-opacity="1"><g transform="translate(29.852735, 28.791985)"><g><path d="M 8.734375 0 L 3.53125 0 C 3.101562 0 2.789062 -0.09375 2.59375 -0.28125 C 2.40625 -0.476562 2.3125 -0.785156 2.3125 -1.203125 L 2.3125 -22.96875 C 2.3125 -23.394531 2.40625 -23.703125 2.59375 -23.890625 C 2.789062 -24.078125 3.101562 -24.171875 3.53125 -24.171875 L 13.796875 -24.171875 C 16.847656 -24.171875 18.929688 -23.566406 20.046875 -22.359375 C 21.160156 -21.148438 21.71875 -19.570312 21.71875 -17.625 L 21.71875 -13.328125 C 21.71875 -11.378906 21.160156 -9.800781 20.046875 -8.59375 C 18.929688 -7.382812 16.847656 -6.78125 13.796875 -6.78125 L 9.9375 -6.78125 L 9.9375 -1.203125 C 9.9375 -0.785156 9.84375 -0.476562 9.65625 -0.28125 C 9.46875 -0.09375 9.160156 0 8.734375 0 Z M 9.875 -17.890625 L 9.875 -12.828125 L 12.890625 -12.828125 C 13.546875 -12.828125 13.972656 -12.992188 14.171875 -13.328125 C 14.367188 -13.660156 14.46875 -14.039062 14.46875 -14.46875 L 14.46875 -16.25 C 14.46875 -16.675781 14.367188 -17.054688 14.171875 -17.390625 C 13.972656 -17.722656 13.546875 -17.890625 12.890625 -17.890625 Z M 9.875 -17.890625 "/></g></g></g><g fill="#00ffff" fill-opacity="1"><g transform="translate(52.74877, 28.791985)"><g><path d="M 8.734375 0 L 3.53125 0 C 3.101562 0 2.789062 -0.09375 2.59375 -0.28125 C 2.40625 -0.476562 2.3125 -0.785156 2.3125 -1.203125 L 2.3125 -22.96875 C 2.3125 -23.394531 2.40625 -23.703125 2.59375 -23.890625 C 2.789062 -24.078125 3.101562 -24.171875 3.53125 -24.171875 L 8.734375 -24.171875 C 9.160156 -24.171875 9.46875 -24.078125 9.65625 -23.890625 C 9.84375 -23.703125 9.9375 -23.394531 9.9375 -22.96875 L 9.9375 -15.6875 L 15.546875 -15.6875 L 15.546875 -22.96875 C 15.546875 -23.394531 15.640625 -23.703125 15.828125 -23.890625 C 16.023438 -24.078125 16.332031 -24.171875 16.75 -24.171875 L 21.953125 -24.171875 C 22.378906 -24.171875 22.6875 -24.078125 22.875 -23.890625 C 23.070312 -23.703125 23.171875 -23.394531 23.171875 -22.96875 L 23.171875 -1.203125 C 23.171875 -0.785156 23.070312 -0.476562 22.875 -0.28125 C 22.6875 -0.09375 22.378906 0 21.953125 0 L 16.75 0 C 16.332031 0 16.023438 -0.09375 15.828125 -0.28125 C 15.640625 -0.476562 15.546875 -0.785156 15.546875 -1.203125 L 15.546875 -8.65625 L 9.9375 -8.65625 L 9.9375 -1.203125 C 9.9375 -0.785156 9.84375 -0.476562 9.65625 -0.28125 C 9.46875 -0.09375 9.160156 0 8.734375 0 Z M 8.734375 0 "/></g></g></g><g fill="#00ffff" fill-opacity="1"><g transform="translate(78.229845, 28.791985)"><g><path d="M 2.984375 0 C 2.554688 0 2.25 -0.09375 2.0625 -0.28125 C 1.875 -0.476562 1.78125 -0.785156 1.78125 -1.203125 L 1.78125 -5.203125 C 1.78125 -5.628906 1.875 -5.9375 2.0625 -6.125 C 2.25 -6.3125 2.554688 -6.40625 2.984375 -6.40625 L 6.3125 -6.40625 L 6.3125 -17.703125 L 2.984375 -17.703125 C 2.554688 -17.703125 2.25 -17.796875 2.0625 -17.984375 C 1.875 -18.171875 1.78125 -18.476562 1.78125 -18.90625 L 1.78125 -22.96875 C 1.78125 -23.394531 1.875 -23.703125 2.0625 -23.890625 C 2.25 -24.078125 2.554688 -24.171875 2.984375 -24.171875 L 17.296875 -24.171875 C 17.722656 -24.171875 18.03125 -24.078125 18.21875 -23.890625 C 18.40625 -23.703125 18.5 -23.394531 18.5 -22.96875 L 18.5 -18.90625 C 18.5 -18.476562 18.40625 -18.171875 18.21875 -17.984375 C 18.03125 -17.796875 17.722656 -17.703125 17.296875 -17.703125 L 14.03125 -17.703125 L 14.03125 -6.40625 L 17.296875 -6.40625 C 17.722656 -6.40625 18.03125 -6.3125 18.21875 -6.125 C 18.40625 -5.9375 18.5 -5.628906 18.5 -5.203125 L 18.5 -1.203125 C 18.5 -0.785156 18.40625 -0.476562 18.21875 -0.28125 C 18.03125 -0.09375 17.722656 0 17.296875 0 Z M 2.984375 0 "/></g></g></g><g fill="#00ffff" fill-opacity="1"><g transform="translate(98.540841, 28.791985)"><g><path d="M 20.609375 0 L 3.53125 0 C 3.101562 0 2.789062 -0.09375 2.59375 -0.28125 C 2.40625 -0.476562 2.3125 -0.785156 2.3125 -1.203125 L 2.3125 -22.96875 C 2.3125 -23.394531 2.40625 -23.703125 2.59375 -23.890625 C 2.789062 -24.078125 3.101562 -24.171875 3.53125 -24.171875 L 8.734375 -24.171875 C 9.160156 -24.171875 9.46875 -24.078125 9.65625 -23.890625 C 9.84375 -23.703125 9.9375 -23.394531 9.9375 -22.96875 L 9.9375 -6.34375 L 14.546875 -6.34375 L 14.546875 -11.78125 C 14.546875 -12.207031 14.640625 -12.515625 14.828125 -12.703125 C 15.015625 -12.898438 15.320312 -13 15.75 -13 L 20.609375 -13 C 21.035156 -13 21.34375 -12.898438 21.53125 -12.703125 C 21.726562 -12.515625 21.828125 -12.207031 21.828125 -11.78125 L 21.828125 -1.203125 C 21.828125 -0.785156 21.726562 -0.476562 21.53125 -0.28125 C 21.34375 -0.09375 21.035156 0 20.609375 0 Z M 20.609375 0 "/></g></g></g><g fill="#7843e6" fill-opacity="1"><g transform="translate(28.977846, 29.607832)"><g><path d="M 8.734375 0 L 3.53125 0 C 3.101562 0 2.789062 -0.09375 2.59375 -0.28125 C 2.40625 -0.476562 2.3125 -0.785156 2.3125 -1.203125 L 2.3125 -22.96875 C 2.3125 -23.394531 2.40625 -23.703125 2.59375 -23.890625 C 2.789062 -24.078125 3.101562 -24.171875 3.53125 -24.171875 L 13.796875 -24.171875 C 16.847656 -24.171875 18.929688 -23.566406 20.046875 -22.359375 C 21.160156 -21.148438 21.71875 -19.570312 21.71875 -17.625 L 21.71875 -13.328125 C 21.71875 -11.378906 21.160156 -9.800781 20.046875 -8.59375 C 18.929688 -7.382812 16.847656 -6.78125 13.796875 -6.78125 L 9.9375 -6.78125 L 9.9375 -1.203125 C 9.9375 -0.785156 9.84375 -0.476562 9.65625 -0.28125 C 9.46875 -0.09375 9.160156 0 8.734375 0 Z M 9.875 -17.890625 L 9.875 -12.828125 L 12.890625 -12.828125 C 13.546875 -12.828125 13.972656 -12.992188 14.171875 -13.328125 C 14.367188 -13.660156 14.46875 -14.039062 14.46875 -14.46875 L 14.46875 -16.25 C 14.46875 -16.675781 14.367188 -17.054688 14.171875 -17.390625 C 13.972656 -17.722656 13.546875 -17.890625 12.890625 -17.890625 Z M 9.875 -17.890625 "/></g></g></g><g fill="#7843e6" fill-opacity="1"><g transform="translate(51.873881, 29.607832)"><g><path d="M 8.734375 0 L 3.53125 0 C 3.101562 0 2.789062 -0.09375 2.59375 -0.28125 C 2.40625 -0.476562 2.3125 -0.785156 2.3125 -1.203125 L 2.3125 -22.96875 C 2.3125 -23.394531 2.40625 -23.703125 2.59375 -23.890625 C 2.789062 -24.078125 3.101562 -24.171875 3.53125 -24.171875 L 8.734375 -24.171875 C 9.160156 -24.171875 9.46875 -24.078125 9.65625 -23.890625 C 9.84375 -23.703125 9.9375 -23.394531 9.9375 -22.96875 L 9.9375 -15.6875 L 15.546875 -15.6875 L 15.546875 -22.96875 C 15.546875 -23.394531 15.640625 -23.703125 15.828125 -23.890625 C 16.023438 -24.078125 16.332031 -24.171875 16.75 -24.171875 L 21.953125 -24.171875 C 22.378906 -24.171875 22.6875 -24.078125 22.875 -23.890625 C 23.070312 -23.703125 23.171875 -23.394531 23.171875 -22.96875 L 23.171875 -1.203125 C 23.171875 -0.785156 23.070312 -0.476562 22.875 -0.28125 C 22.6875 -0.09375 22.378906 0 21.953125 0 L 16.75 0 C 16.332031 0 16.023438 -0.09375 15.828125 -0.28125 C 15.640625 -0.476562 15.546875 -0.785156 15.546875 -1.203125 L 15.546875 -8.65625 L 9.9375 -8.65625 L 9.9375 -1.203125 C 9.9375 -0.785156 9.84375 -0.476562 9.65625 -0.28125 C 9.46875 -0.09375 9.160156 0 8.734375 0 Z M 8.734375 0 "/></g></g></g><g fill="#7843e6" fill-opacity="1"><g transform="translate(77.354956, 29.607832)"><g><path d="M 2.984375 0 C 2.554688 0 2.25 -0.09375 2.0625 -0.28125 C 1.875 -0.476562 1.78125 -0.785156 1.78125 -1.203125 L 1.78125 -5.203125 C 1.78125 -5.628906 1.875 -5.9375 2.0625 -6.125 C 2.25 -6.3125 2.554688 -6.40625 2.984375 -6.40625 L 6.3125 -6.40625 L 6.3125 -17.703125 L 2.984375 -17.703125 C 2.554688 -17.703125 2.25 -17.796875 2.0625 -17.984375 C 1.875 -18.171875 1.78125 -18.476562 1.78125 -18.90625 L 1.78125 -22.96875 C 1.78125 -23.394531 1.875 -23.703125 2.0625 -23.890625 C 2.25 -24.078125 2.554688 -24.171875 2.984375 -24.171875 L 17.296875 -24.171875 C 17.722656 -24.171875 18.03125 -24.078125 18.21875 -23.890625 C 18.40625 -23.703125 18.5 -23.394531 18.5 -22.96875 L 18.5 -18.90625 C 18.5 -18.476562 18.40625 -18.171875 18.21875 -17.984375 C 18.03125 -17.796875 17.722656 -17.703125 17.296875 -17.703125 L 14.03125 -17.703125 L 14.03125 -6.40625 L 17.296875 -6.40625 C 17.722656 -6.40625 18.03125 -6.3125 18.21875 -6.125 C 18.40625 -5.9375 18.5 -5.628906 18.5 -5.203125 L 18.5 -1.203125 C 18.5 -0.785156 18.40625 -0.476562 18.21875 -0.28125 C 18.03125 -0.09375 17.722656 0 17.296875 0 Z M 2.984375 0 "/></g></g></g><g fill="#7843e6" fill-opacity="1"><g transform="translate(97.665952, 29.607832)"><g><path d="M 20.609375 0 L 3.53125 0 C 3.101562 0 2.789062 -0.09375 2.59375 -0.28125 C 2.40625 -0.476562 2.3125 -0.785156 2.3125 -1.203125 L 2.3125 -22.96875 C 2.3125 -23.394531 2.40625 -23.703125 2.59375 -23.890625 C 2.789062 -24.078125 3.101562 -24.171875 3.53125 -24.171875 L 8.734375 -24.171875 C 9.160156 -24.171875 9.46875 -24.078125 9.65625 -23.890625 C 9.84375 -23.703125 9.9375 -23.394531 9.9375 -22.96875 L 9.9375 -6.34375 L 14.546875 -6.34375 L 14.546875 -11.78125 C 14.546875 -12.207031 14.640625 -12.515625 14.828125 -12.703125 C 15.015625 -12.898438 15.320312 -13 15.75 -13 L 20.609375 -13 C 21.035156 -13 21.34375 -12.898438 21.53125 -12.703125 C 21.726562 -12.515625 21.828125 -12.207031 21.828125 -11.78125 L 21.828125 -1.203125 C 21.828125 -0.785156 21.726562 -0.476562 21.53125 -0.28125 C 21.34375 -0.09375 21.035156 0 20.609375 0 Z M 20.609375 0 "/></g></g></g></svg>